<svg xmlns="http://www.w3.org/2000/svg" viewBox="0 0 336 64" role="img" aria-labelledby="title">
  <title id="title">Highlight Corner</title>
  <rect width="64" height="64" rx="14" fill="#0e1013"/>
  <g transform="scale(.125)" fill="none" stroke-linecap="round" stroke-linejoin="round">
    <path d="M179 330h78V210h62" stroke="#747d89" stroke-width="13"/>
    <path d="M302 204l16 6-16 6" stroke="#747d89" stroke-width="10"/>
    <path d="m131 282 42 42m0-42-42 42" stroke="#f2f4f7" stroke-width="18"/>
    <path d="M315 192v-38h36M371 154h36v38M407 228v38h-36M351 266h-36v-38" stroke="#f2f4f7" stroke-width="13"/>
    <path d="M315 192v-38h36M407 228v38h-36" stroke="#ff3b30" stroke-width="14"/>
    <circle cx="361" cy="210" r="25" stroke="#ff3b30" stroke-width="14"/>
    <path d="m361 132 7 16 17 7-17 7-7 17-7-17-17-7 17-7Z" fill="#f2f4f7" stroke="none"/>
    <circle cx="361" cy="210" r="7" fill="#ff3b30" stroke="none"/>
  </g>
  <text x="76" y="43" font-family="Arial, Helvetica, sans-serif" font-size="27" font-weight="750" letter-spacing="-.8">
    <tspan fill="#14161a">Highlight</tspan><tspan fill="#d50a0a"> Corner</tspan>
  </text>
</svg>
